<mxfile host="65bd71144e">
    <diagram id="uvhG6UoTdu2mC-WGF17E" name="第 1 页">
        <mxGraphModel dx="1067" dy="790" grid="1" gridSize="10" guides="1" tooltips="1" connect="1" arrows="1" fold="1" page="1" pageScale="1" pageWidth="827" pageHeight="1169" math="0" shadow="0">
            <root>
                <mxCell id="0"/>
                <mxCell id="1" parent="0"/>
                <mxCell id="2" value="" style="whiteSpace=wrap;html=1;fillColor=#cce5ff;strokeColor=#36393d;" vertex="1" parent="1">
                    <mxGeometry x="240" y="70" width="320" height="530" as="geometry"/>
                </mxCell>
                <mxCell id="3" value="" style="rounded=1;whiteSpace=wrap;html=1;shadow=0;fillColor=#f8cecc;strokeColor=#b85450;" vertex="1" parent="1">
                    <mxGeometry x="260" y="100" width="280" height="40" as="geometry"/>
                </mxCell>
                <mxCell id="4" value="" style="rounded=1;whiteSpace=wrap;html=1;fillColor=#f5f5f5;strokeColor=#666666;fontColor=#333333;labelBackgroundColor=none;labelBorderColor=none;" vertex="1" parent="1">
                    <mxGeometry x="260" y="160" width="280" height="40" as="geometry"/>
                </mxCell>
                <mxCell id="6" value="牛肉" style="text;html=1;strokeColor=none;fillColor=none;align=center;verticalAlign=middle;whiteSpace=wrap;rounded=0;fontColor=#151414;fontStyle=1;fontSize=18;" vertex="1" parent="1">
                    <mxGeometry x="270" y="165" width="60" height="30" as="geometry"/>
                </mxCell>
                <mxCell id="7" value="00:00:05" style="text;html=1;strokeColor=none;fillColor=#f8cecc;align=center;verticalAlign=middle;whiteSpace=wrap;rounded=0;shadow=0;fontColor=#151414;fontStyle=1" vertex="1" parent="1">
                    <mxGeometry x="470" y="105" width="60" height="30" as="geometry"/>
                </mxCell>
                <mxCell id="9" value="00:00:35" style="text;html=1;strokeColor=none;fillColor=#f5f5f5;align=center;verticalAlign=middle;whiteSpace=wrap;rounded=0;shadow=0;fontColor=#333333;fontStyle=1" vertex="1" parent="1">
                    <mxGeometry x="470" y="165" width="60" height="30" as="geometry"/>
                </mxCell>
                <mxCell id="10" value="毛肚" style="text;html=1;strokeColor=none;fillColor=none;align=center;verticalAlign=middle;whiteSpace=wrap;rounded=0;fontColor=#151414;fontStyle=1;fontSize=18;" vertex="1" parent="1">
                    <mxGeometry x="270" y="105" width="60" height="30" as="geometry"/>
                </mxCell>
                <mxCell id="19" style="edgeStyle=none;html=1;fontSize=14;fontColor=#1b1818;" edge="1" parent="1" source="12" target="2">
                    <mxGeometry relative="1" as="geometry"/>
                </mxCell>
                <mxCell id="12" value="按食材分 | 按时间分" style="text;html=1;strokeColor=none;fillColor=none;align=center;verticalAlign=middle;whiteSpace=wrap;rounded=0;shadow=0;labelBackgroundColor=none;labelBorderColor=none;fontSize=14;fontColor=#151414;" vertex="1" parent="1">
                    <mxGeometry x="240" y="320" width="320" height="30" as="geometry"/>
                </mxCell>
                <mxCell id="14" value="肉类：" style="text;html=1;strokeColor=none;fillColor=none;align=center;verticalAlign=middle;whiteSpace=wrap;rounded=0;shadow=0;labelBackgroundColor=none;labelBorderColor=none;fontSize=18;fontColor=#151414;" vertex="1" parent="1">
                    <mxGeometry x="260" y="360" width="60" height="30" as="geometry"/>
                </mxCell>
                <mxCell id="15" value="海鲜：" style="text;html=1;strokeColor=none;fillColor=none;align=center;verticalAlign=middle;whiteSpace=wrap;rounded=0;shadow=0;labelBackgroundColor=none;labelBorderColor=none;fontSize=18;fontColor=#151414;" vertex="1" parent="1">
                    <mxGeometry x="260" y="470" width="60" height="30" as="geometry"/>
                </mxCell>
                <mxCell id="16" value="&lt;span style=&quot;font-size: 12px;&quot;&gt;牛肉&lt;/span&gt;" style="rounded=1;whiteSpace=wrap;html=1;shadow=0;labelBackgroundColor=none;labelBorderColor=none;fontSize=18;fillColor=#dae8fc;strokeColor=#6c8ebf;fontColor=#1b1818;" vertex="1" parent="1">
                    <mxGeometry x="260" y="400" width="60" height="30" as="geometry"/>
                </mxCell>
                <mxCell id="17" value="&lt;span style=&quot;font-size: 12px;&quot;&gt;羊肉片&lt;/span&gt;" style="rounded=1;whiteSpace=wrap;html=1;shadow=0;labelBackgroundColor=none;labelBorderColor=none;fontSize=18;fillColor=#dae8fc;strokeColor=#6c8ebf;fontColor=#1b1818;" vertex="1" parent="1">
                    <mxGeometry x="330" y="400" width="60" height="30" as="geometry"/>
                </mxCell>
                <mxCell id="18" value="&lt;span style=&quot;font-size: 12px;&quot;&gt;虾仁&lt;/span&gt;" style="rounded=1;whiteSpace=wrap;html=1;shadow=0;labelBackgroundColor=none;labelBorderColor=none;fontSize=18;fillColor=#dae8fc;strokeColor=#6c8ebf;fontColor=#1b1818;" vertex="1" parent="1">
                    <mxGeometry x="260" y="510" width="60" height="30" as="geometry"/>
                </mxCell>
                <mxCell id="20" value="+" style="ellipse;whiteSpace=wrap;html=1;aspect=fixed;shadow=0;labelBackgroundColor=none;labelBorderColor=none;fontSize=14;fillColor=none;strokeColor=#2D7600;fontColor=#000000;" vertex="1" parent="1">
                    <mxGeometry x="530" y="365" width="20" height="20" as="geometry"/>
                </mxCell>
                <mxCell id="21" value="+" style="ellipse;whiteSpace=wrap;html=1;aspect=fixed;shadow=0;labelBackgroundColor=none;labelBorderColor=none;fontSize=14;fillColor=none;strokeColor=#2D7600;fontColor=#000000;" vertex="1" parent="1">
                    <mxGeometry x="530" y="475" width="20" height="20" as="geometry"/>
                </mxCell>
                <mxCell id="27" value="&lt;font color=&quot;#080808&quot;&gt;1. 背景色作为进度条，耗时短的食材块排在前面&lt;br&gt;&lt;br&gt;2.&amp;nbsp;点击食材，是否以抛物线形式生成计时块？&lt;br&gt;&lt;br&gt;&lt;span style=&quot;&quot;&gt;3.&lt;/span&gt;时间到是否给出声音提醒？&lt;br&gt;&lt;/font&gt;&lt;span style=&quot;&quot;&gt;&lt;font color=&quot;#0f0f0f&quot;&gt;&lt;br&gt;4. 时间到，是滑动清除卡片还是点击左上角×清除卡片？&lt;br&gt;&lt;/font&gt;&lt;/span&gt;" style="shape=note;whiteSpace=wrap;html=1;backgroundOutline=1;fontColor=#000000;darkOpacity=0.05;fillColor=#FFF9B2;strokeColor=none;fillStyle=solid;direction=west;gradientDirection=north;gradientColor=#FFF2A1;shadow=1;size=20;pointerEvents=1;labelBackgroundColor=none;labelBorderColor=none;sketch=0;fontSize=15;align=left;verticalAlign=top;" vertex="1" parent="1">
                    <mxGeometry x="598" y="90" width="222" height="260" as="geometry"/>
                </mxCell>
                <mxCell id="29" value="+" style="ellipse;whiteSpace=wrap;html=1;aspect=fixed;shadow=0;labelBackgroundColor=none;labelBorderColor=none;fontSize=14;fillColor=#d80073;strokeColor=#A50040;fontColor=#ffffff;rotation=-135;" vertex="1" parent="1">
                    <mxGeometry x="530" y="90" width="20" height="20" as="geometry"/>
                </mxCell>
            </root>
        </mxGraphModel>
    </diagram>
</mxfile>
